<?xml version="1.0" encoding="UTF-8" standalone="no"?>
<!DOCTYPE svg PUBLIC "-//W3C//DTD SVG 1.1//EN" "http://www.w3.org/Graphics/SVG/1.1/DTD/svg11.dtd">
<svg width="100%" height="100%" viewBox="0 0 157 27" version="1.1" xmlns="http://www.w3.org/2000/svg" xmlns:xlink="http://www.w3.org/1999/xlink" xml:space="preserve" xmlns:serif="http://www.serif.com/" style="fill-rule:evenodd;clip-rule:evenodd;stroke-linejoin:round;stroke-miterlimit:2;"><g><g><path d="M13.5,0c-7.456,0 -13.5,6.044 -13.5,13.5c0,7.456 6.044,13.5 13.5,13.5c7.456,0 13.5,-6.044 13.5,-13.5c0,-7.456 -6.044,-13.5 -13.5,-13.5" style="fill:#E74E4E;"/><path d="M19.493,13.721l2.067,-3.581l-0.978,-1.697l-4.14,-0.003l2.396,-4.151c-0.656,-0.383 -1.352,-0.694 -2.076,-0.928l-3.262,5.643l0.983,1.697l4.14,0l-2.069,3.585l0.977,1.7l6.326,-0c0.174,-0.728 0.273,-1.488 0.289,-2.265l-4.653,-0Zm-6.975,8.677l1.958,0.001l2.073,-3.583l2.259,3.913c0.659,-0.38 1.276,-0.828 1.839,-1.338l-3.116,-5.405l-1.96,0l-2.072,3.586l-2.069,-3.586l-1.961,0l-3.116,5.405c0.564,0.51 1.181,0.958 1.84,1.338l2.258,-3.912l2.067,3.581l-0,-0Zm-2.072,-8.111l-2.066,-3.586l4.136,0l0.984,-1.698l-3.262,-5.641c-0.724,0.233 -1.42,0.544 -2.076,0.927l2.395,4.149l-4.134,0l-0.98,1.696l2.067,3.587l-4.656,-0c0.016,0.777 0.115,1.537 0.289,2.265l6.326,-0l0.978,-1.699l-0.001,-0Z" style="fill:#fff;"/></g><g><path d="M41.023,21.998l-1.985,0l-0,-16.998l2.554,0l9.978,13.94l9.799,-13.94l2.661,0l-0,16.998l-1.977,0l0,-14.246l-10,14.246l-0.901,0l-10.129,-14.224l-0,14.224Z" style="fill:#fff;fill-rule:nonzero;"/><path d="M77.471,5.001l9.915,16.998l-2.324,-0l-2.201,-3.758l-13.565,0l-2.286,3.758l-2.103,-0l9.903,-16.998l2.661,-0Zm-1.258,1.825l-5.816,9.59l11.398,0l-5.582,-9.59Z" style="fill:#fff;fill-rule:nonzero;"/><path d="M93.469,20.078l10.526,0c1.273,0 2.235,-0.205 2.886,-0.616c0.652,-0.41 0.977,-1.144 0.976,-2.2c0,-1.06 -0.318,-1.789 -0.955,-2.188c-0.636,-0.399 -1.598,-0.598 -2.886,-0.598l-10.289,0c-1.488,0 -2.596,-0.138 -3.321,-0.416c-0.711,-0.266 -1.369,-0.682 -1.936,-1.226c-0.565,-0.541 -0.848,-1.577 -0.849,-3.111c0,-1.944 0.451,-3.159 1.353,-3.645c0.902,-0.485 1.685,-0.786 2.349,-0.901c0.804,-0.125 1.614,-0.183 2.425,-0.172l9.556,-0c2.147,-0 3.559,0.369 4.238,1.108c0.679,0.739 1.138,1.387 1.378,1.945c0.272,0.655 0.477,1.341 0.612,2.046l-2.179,0c-0.379,-1.145 -0.869,-1.961 -1.468,-2.447c-0.599,-0.487 -1.494,-0.732 -2.686,-0.736l-9.645,0c-1.273,0 -2.237,0.208 -2.891,0.623c-0.654,0.416 -0.981,1.153 -0.981,2.213c-0,1.059 0.32,1.782 0.96,2.169c0.64,0.387 1.604,0.58 2.891,0.579l10.28,0c2.389,0 4.005,0.419 4.85,1.257c0.844,0.837 1.266,2.015 1.265,3.531c-0,1.936 -0.45,3.148 -1.351,3.633c-0.901,0.486 -1.687,0.786 -2.356,0.901c-0.805,0.125 -1.617,0.182 -2.43,0.172l-10.44,-0c-2.131,-0 -3.535,-0.367 -4.211,-1.102c-0.677,-0.734 -1.137,-1.382 -1.379,-1.944c-0.272,-0.656 -0.474,-1.344 -0.602,-2.05l2.179,-0c0.378,1.145 0.864,1.961 1.459,2.447c0.595,0.486 1.486,0.729 2.672,0.728Z" style="fill:#fff;fill-rule:nonzero;"/><path d="M117.214,20.079l10.525,-0c1.274,-0 2.236,-0.206 2.886,-0.617c0.65,-0.41 0.976,-1.144 0.977,-2.2c0,-1.06 -0.318,-1.789 -0.955,-2.188c-0.637,-0.399 -1.599,-0.598 -2.886,-0.598l-10.29,0c-1.487,0 -2.594,-0.138 -3.32,-0.415c-0.711,-0.268 -1.369,-0.686 -1.935,-1.23c-0.566,-0.541 -0.848,-1.578 -0.848,-3.111c0,-1.945 0.451,-3.16 1.352,-3.645c0.901,-0.486 1.684,-0.786 2.35,-0.901c0.804,-0.125 1.614,-0.183 2.425,-0.173l9.559,0c2.147,0 3.56,0.37 4.239,1.109c0.679,0.738 1.138,1.387 1.377,1.944c0.269,0.657 0.472,1.344 0.606,2.05l-2.178,0c-0.38,-1.145 -0.869,-1.961 -1.468,-2.447c-0.599,-0.487 -1.493,-0.73 -2.683,-0.73l-9.645,0c-1.272,0 -2.236,0.208 -2.891,0.623c-0.655,0.416 -0.983,1.151 -0.985,2.207c0,1.059 0.32,1.782 0.961,2.169c0.64,0.387 1.604,0.58 2.891,0.579l10.274,0c2.389,0 4.006,0.419 4.85,1.257c0.845,0.838 1.267,2.015 1.267,3.531c-0,1.937 -0.451,3.148 -1.352,3.633c-0.901,0.486 -1.686,0.786 -2.355,0.901c-0.805,0.125 -1.618,0.182 -2.431,0.172l-10.435,-0c-2.131,-0 -3.535,-0.367 -4.212,-1.102c-0.676,-0.734 -1.136,-1.382 -1.378,-1.944c-0.272,-0.656 -0.473,-1.344 -0.601,-2.05l2.178,-0c0.379,1.145 0.865,1.961 1.459,2.447c0.593,0.486 1.484,0.729 2.672,0.729Z" style="fill:#fff;fill-rule:nonzero;"/><path d="M146.119,5.001l9.919,16.998l-2.327,-0l-2.202,-3.758l-13.566,0l-2.285,3.758l-2.104,-0l9.904,-16.998l2.661,-0Zm-1.258,1.825l-5.815,9.59l11.395,0l-5.58,-9.59Z" style="fill:#fff;fill-rule:nonzero;"/></g></g></svg>